<?xml version="1.0" encoding="utf-8"?>
<!-- Generator: Adobe Illustrator 16.0.0, SVG Export Plug-In . SVG Version: 6.00 Build 0)  -->
<!DOCTYPE svg PUBLIC "-//W3C//DTD SVG 1.1//EN" "http://www.w3.org/Graphics/SVG/1.1/DTD/svg11.dtd">
<svg version="1.1" id="レイヤー_1" xmlns="http://www.w3.org/2000/svg" xmlns:xlink="http://www.w3.org/1999/xlink" x="0px"
	 y="0px" width="580.254px" height="76.367px" viewBox="85.893 9.5 580.254 76.367"
	 enable-background="new 85.893 9.5 580.254 76.367" xml:space="preserve">
<g>
	<path d="M155.082,84.5h-7.715l-11.279-23.633h-30.957L93.901,84.5h-8.008l33.936-71.826h1.758L155.082,84.5z M132.914,53.885
		l-12.207-26.025l-12.354,26.025H132.914z"/>
	<path d="M223.119,84.5h-6.787v-9.131c-5.756,6.999-12.862,10.498-21.316,10.498c-7.675,0-14.146-2.767-19.414-8.301
		c-5.203-5.436-7.805-12.027-7.805-19.775c0-7.649,2.658-14.192,7.975-19.629c5.317-5.436,11.796-8.154,19.439-8.154
		c8.748,0,15.788,3.711,21.121,11.133V10.867h6.787V84.5z M216.772,58.23c0-6.073-1.99-11.188-5.968-15.346
		c-3.979-4.157-8.988-6.236-15.028-6.236c-8.119,0-14.176,3.557-18.171,10.669c-1.917,3.378-2.874,6.95-2.874,10.718
		s0.958,7.349,2.874,10.742c1.916,3.395,4.489,6.041,7.721,7.941c3.232,1.9,6.699,2.85,10.401,2.85
		c3.734,0,7.274-0.941,10.619-2.825s5.919-4.434,7.722-7.648C215.87,65.88,216.772,62.258,216.772,58.23z"/>
	<path d="M323.139,84.5h-7.031V55.525c0-4.454-0.195-7.56-0.586-9.316c-0.716-3.381-2.312-5.902-4.785-7.561
		c-1.986-1.3-4.346-1.951-7.08-1.951c-3.386,0-6.445,0.984-9.18,2.951c-2.734,1.967-4.729,4.569-5.981,7.805
		c-1.253,3.236-1.88,8.658-1.88,16.268V84.5h-6.836V57.33c0-4.975-0.163-8.357-0.488-10.146c-0.684-3.837-2.312-6.65-4.883-8.439
		c-1.986-1.366-4.346-2.048-7.08-2.048c-3.288,0-6.315,0.992-9.082,2.976c-2.637,1.918-4.59,4.438-5.859,7.561
		c-1.335,3.22-2.002,8.146-2.002,14.78V84.5h-6.836V31.375h6.836v9.18c4.953-7.031,11.031-10.547,18.234-10.547
		c5.442,0,9.776,1.839,13.002,5.518c1.467,1.693,2.738,4.102,3.813,7.227c4.662-8.496,11.198-12.744,19.61-12.744
		c7.791,0,13.138,3.516,16.04,10.547c1.369,3.32,2.054,8.301,2.054,14.941V84.5z"/>
	<path d="M350.405,15.14c0,1.557-0.552,2.877-1.653,3.963c-1.102,1.085-2.431,1.628-3.986,1.628c-1.523,0-2.836-0.551-3.938-1.652
		c-1.102-1.102-1.652-2.415-1.652-3.938c0-1.556,0.542-2.885,1.628-3.986c1.086-1.102,2.406-1.653,3.963-1.653
		c1.556,0,2.885,0.552,3.986,1.653S350.405,13.584,350.405,15.14z M348.305,84.5h-6.934V31.375h6.934V84.5z"/>
	<path d="M413.754,84.5h-6.836V59.184c0-5.982-0.26-10.064-0.779-12.243c-1.688-7.056-6.134-10.585-13.339-10.585
		c-4.121,0-7.813,1.358-11.075,4.073s-5.412,6.105-6.45,10.17c-0.649,2.569-0.974,7.382-0.974,14.438V84.5h-6.885V31.375h6.885
		v9.521c5.429-7.259,12.063-10.889,19.897-10.889c3.868,0,7.354,0.985,10.46,2.954c3.105,1.97,5.396,4.688,6.876,8.154
		s2.22,8.813,2.22,16.04V84.5z"/>
	<path d="M505.151,19.705h-16.016V84.5h-7.275V19.705h-16.064v-7.031h39.355V19.705z"/>
	<path d="M572.114,58.084c0,7.813-2.653,14.396-7.959,19.751c-5.307,5.354-11.865,8.032-19.678,8.032s-14.38-2.669-19.702-8.008
		c-5.322-5.338-7.983-11.93-7.983-19.775c0-7.356,2.441-13.737,7.324-19.141c5.371-5.957,12.158-8.936,20.361-8.936
		c8.17,0,14.941,2.962,20.313,8.887C569.672,44.298,572.114,50.695,572.114,58.084z M565.131,58.229
		c0-5.845-1.99-10.887-5.968-15.126c-3.978-4.238-8.874-6.357-14.687-6.357c-5.813,0-10.709,2.12-14.688,6.357
		c-3.978,4.239-5.967,9.281-5.967,15.126c0,3.768,0.893,7.292,2.68,10.572c1.851,3.378,4.367,5.976,7.55,7.794
		c3.183,1.819,6.657,2.729,10.425,2.729c8.054,0,14.013-3.459,17.878-10.377C564.205,65.635,565.131,62.063,565.131,58.229z"/>
	<path d="M642.592,58.084c0,7.813-2.653,14.396-7.959,19.751c-5.307,5.354-11.865,8.032-19.678,8.032s-14.38-2.669-19.702-8.008
		c-5.322-5.338-7.983-11.93-7.983-19.775c0-7.356,2.441-13.737,7.324-19.141c5.371-5.957,12.158-8.936,20.361-8.936
		c8.17,0,14.941,2.962,20.313,8.887C640.151,44.298,642.592,50.695,642.592,58.084z M635.61,58.229
		c0-5.845-1.99-10.887-5.968-15.126c-3.978-4.238-8.874-6.357-14.687-6.357c-5.813,0-10.709,2.12-14.688,6.357
		c-3.978,4.239-5.967,9.281-5.967,15.126c0,3.768,0.893,7.292,2.68,10.572c1.851,3.378,4.367,5.976,7.55,7.794
		c3.183,1.819,6.657,2.729,10.425,2.729c8.054,0,14.013-3.459,17.878-10.377C634.684,65.635,635.61,62.063,635.61,58.229z"/>
	<path d="M666.147,84.5h-6.885V10.867h6.885V84.5z"/>
</g>
</svg>
