<?xml version="1.0" encoding="utf-8"?>
<!-- Generator: Adobe Illustrator 16.0.0, SVG Export Plug-In . SVG Version: 6.00 Build 0)  -->
<!DOCTYPE svg PUBLIC "-//W3C//DTD SVG 1.1//EN" "http://www.w3.org/Graphics/SVG/1.1/DTD/svg11.dtd">
<svg version="1.1" id="レイヤー_1" xmlns="http://www.w3.org/2000/svg" xmlns:xlink="http://www.w3.org/1999/xlink" x="0px"
	 y="0px" width="500px" height="500px" viewBox="0 0 500 500" enable-background="new 0 0 500 500" xml:space="preserve">
<path fill="#272828" d="M249.995,472.639c-122.75,0-222.631-99.881-222.631-222.645c0-122.759,99.881-222.632,222.631-222.632
	c122.76,0,222.64,99.873,222.64,222.632C472.635,372.758,372.755,472.639,249.995,472.639 M249.995,55.178
	c-107.424,0-194.814,87.39-194.814,194.815c0,107.418,87.391,194.809,194.814,194.809c107.426,0,194.83-87.391,194.83-194.809
	C444.825,142.568,357.421,55.178,249.995,55.178"/>
<path d="M204.314,252.718l-9.58-7.396c14.491-15.947,27.709-27.305,39.652-34.047c11.965-6.752,22.131-10.112,30.539-10.112
	c4.634,0,8.19,1.003,10.656,3.03c2.453,2.042,3.693,4.804,3.693,8.268c0,4.224-4.716,22.063-14.107,53.53
	c-15.326,51.496-22.998,82.538-22.998,93.115c0,2.035,0.497,3.733,1.521,5.12c1.005,1.389,2.095,2.062,3.268,2.062
	c4.636,0,16.524-8.986,35.686-26.975l8.487,8.26c-19.886,18.715-34.377,30.681-43.525,35.907
	c-9.137,5.201-16.613,7.829-22.406,7.829c-5.074,0-9.103-1.603-12.087-4.783c-2.964-3.193-4.44-7.626-4.44-13.285
	c0-18.122,10.875-62.437,32.627-132.924c1.01-3.343,1.523-6.306,1.523-8.914c0-2.896-1.302-4.358-3.921-4.358
	c-2.896,0-6.198,1.173-9.891,3.49C225.313,232.851,217.074,240.242,204.314,252.718 M289.811,108.691
	c4.5,0,8.192,1.477,11.103,4.453c2.91,2.984,4.353,6.791,4.353,11.425c0,6.389-2.224,12.007-6.644,16.862
	c-4.42,4.873-9.391,7.283-14.901,7.283c-4.353,0-7.976-1.516-10.886-4.567c-2.884-3.044-4.34-7.02-4.34-11.958
	c0-6.54,2.103-12.071,6.307-16.64C279.005,110.982,284.018,108.691,289.811,108.691"/>
<path d="M226.413,396.481c-6.557,0-11.878-2.168-15.867-6.425c-3.873-4.178-5.832-9.837-5.832-16.816
	c0-18.823,10.744-62.814,32.848-134.447c0.734-2.398,1.158-4.546,1.266-6.427c-1.703,0.304-3.678,1.173-5.86,2.541
	c-2.304,1.448-8.332,6.371-23.828,21.509l-3.214,3.146l-17.576-13.581l3.78-4.137c14.786-16.296,28.57-28.106,40.933-35.085
	c12.873-7.242,23.693-10.772,33.078-10.772c5.848,0,10.523,1.415,13.945,4.219c3.637,3.023,5.578,7.255,5.578,12.267
	c0,3.281-1.631,12.51-14.322,55c-18.836,63.217-22.785,84.735-22.785,91.633c0,1.362,0.392,1.86,0.498,2.035
	c-0.026-0.134,6.125-1.994,31.246-25.601l3.611-3.395l15.898,15.494l-3.934,3.692c-20.387,19.213-34.943,31.179-44.504,36.635
	C241.368,393.693,233.204,396.481,226.413,396.481 M240.115,221.885c5.519,0,9.095,3.739,9.095,9.518
	c0,3.087-0.58,6.61-1.738,10.416c-21.51,69.672-32.411,113.893-32.411,131.422c0,4.353,0.99,7.546,3.06,9.755
	c4.607,4.958,13.688,4.244,28.132-4.015c8.118-4.635,21.086-15.211,38.602-31.475l-1.078-1.052
	c-23.666,21.882-31.15,25.008-35.604,25.008c-2,0-4.925-0.729-7.45-4.203c-1.658-2.237-2.514-4.986-2.514-8.153
	c0-11.195,7.593-42.132,23.208-94.598c12.551-41.963,13.898-50.364,13.898-52.035c0-2.474-0.971-3.592-1.832-4.291
	c-1.482-1.227-3.963-1.847-7.344-1.847c-7.451,0-16.862,3.167-27.998,9.445c-10.35,5.854-21.963,15.563-34.547,28.907l1.529,1.186
	c14.982-14.483,19.928-18.21,22.34-19.731C232.057,223.271,236.18,221.885,240.115,221.885 M284.934,153.89
	c-5.793,0-10.711-2.069-14.619-6.165c-3.832-4.015-5.779-9.249-5.779-15.535c0-7.842,2.586-14.612,7.682-20.15
	c5.199-5.651,11.531-8.521,18.807-8.521c5.928,0,10.902,2.026,14.795,6.016c3.881,3.954,5.834,9.007,5.834,15.035
	c0,7.688-2.693,14.532-7.99,20.339C298.246,150.864,291.941,153.89,284.934,153.89 M291.023,113.866
	c-4.336,0-8.002,1.696-11.209,5.173c-3.314,3.61-4.932,7.917-4.932,13.15c0,3.585,0.943,6.346,2.924,8.401
	c4.568,4.783,12.273,3.874,18.201-2.634c3.559-3.922,5.297-8.28,5.297-13.388c0-3.266-0.957-5.819-2.885-7.807
	C296.496,114.789,294.15,113.866,291.023,113.866"/>
</svg>
