<?xml version="1.0" encoding="utf-8"?>
<!-- Generator: Adobe Illustrator 16.0.0, SVG Export Plug-In . SVG Version: 6.00 Build 0)  -->
<!DOCTYPE svg PUBLIC "-//W3C//DTD SVG 1.1//EN" "http://www.w3.org/Graphics/SVG/1.1/DTD/svg11.dtd">
<svg version="1.1" id="レイヤー_1" xmlns="http://www.w3.org/2000/svg" xmlns:xlink="http://www.w3.org/1999/xlink" x="0px"
	 y="0px" width="727.162px" height="172.61px" viewBox="-124.065 -23.128 727.162 172.61"
	 enable-background="new -124.065 -23.128 727.162 172.61" xml:space="preserve">
<g>
	<path fill="#040000" d="M109.862,121.405l-24.514,1.343l1.217-90.204l10.729-1.981c14.266-2.65,30.294-4.799,40.574,2.822
		c14.792,10.956,18.481,32.978,18.328,44.267l-0.86,39.977l-24.514,1.342l0.861-39.976c0.117-8.666-3.303-20.647-9.03-24.89
		c-1.191-0.755-4.298-1.307-11.877-0.454L109.862,121.405z"/>
	<path fill="#040000" d="M228.254,71.438c0.534-45.42,2.948-68.301,4.854-74.097l-23.555-7.75
		c-3.139,9.534-4.718,31.742-5.496,54.504c-4.69-1.968-9.879-2.721-15.323-2.084c-18.015,2.07-32.304,18.583-32.53,37.594
		c-0.116,9.795,3.712,18.926,10.5,25.053c6.345,5.722,14.59,8.389,23.271,7.535c0.178-0.018,0.359-0.037,0.539-0.062
		c9.074-1.041,17.196-5.752,23.058-12.594c4.869,5.36,11.304,9.233,18.933,11.052l5.747-24.126
		C231.802,84.926,228.161,79.451,228.254,71.438 M202.379,74.293c-0.101,8.508-6.616,16.434-14.227,17.308
		c-2.825,0.282-5.567-0.454-7.603-2.292c-2.42-2.178-3.725-5.541-3.68-9.462c0.101-8.504,6.615-16.43,14.228-17.308
		c0.065-0.006,0.131-0.015,0.194-0.021c2.861-0.28,5.417,0.518,7.41,2.313C201.118,67.013,202.426,70.374,202.379,74.293"/>
	<path fill="#040000" d="M323.658,99.713c-1.168,0.263-2.366,0.513-3.608,0.75l-4.581-24.378
		c12.724-2.386,20.957-7.115,22.651-12.963c0.967-3.342-0.435-6.928-2.238-8.606c-2.336-2.174-3.838-2.371-7.12-2.804
		c-9.317-1.226-18.538-4.627-22.889-21.094c-2.51-9.493,0.593-20.883,8.099-29.72c8.185-9.632,20.074-14.463,32.642-13.261
		l-2.37,24.685c-5.585-0.536-9.203,2.146-11.247,4.487c-2.913,3.348-3.329,6.699-3.143,7.479c0.336,1.266,0.637,2.117,0.863,2.659
		c0.42,0.063,0.885,0.124,1.278,0.175c4.727,0.623,12.633,1.661,20.774,9.228c9.054,8.417,12.653,21.632,9.175,33.662
		C359.472,78.563,351.202,93.46,323.658,99.713"/>
	<path fill="#040000" d="M416.464-19.15c0,0,18.489-0.952,23.596-1.572c0.61,6.208-0.745,19.13-0.329,26.983
		c-9.121,1.468-23.514,0.151-23.514,0.151L416.464-19.15z"/>
	<path fill="#040000" d="M415.692,15.657c-0.409,7.174-0.763,67.576-1.232,71.19c5.166-0.509,22.744-1.482,24.554-1.352
		c0.189-7.94,0.132-68.526,0.84-71.091C434.284,14.951,418.26,16.64,415.692,15.657"/>
	<path fill="#040000" d="M499.673,19.868c5.532,1.241,20.297-1.996,23.692,2.27c0.976-5.953,0.124-34.718-28.563-35.527
		c-33.768-0.953-49.142,31.906-51.579,46.246c0,0-10.436,38.053,26.619,45.868c34.316,7.236,113.593-40.149,122.617-47.664
		c2.486-1.428-5.044-23.219-5.569-24.259c-0.526-1.041-13.471,6.52-29.491,15.978c-11.002,6.495-93.004,50.815-90.699,22.579
		c2.308-28.236,19.238-33.416,25.868-34.647C499.196,9.479,499.604,16.613,499.673,19.868"/>
	<path fill="#040000" d="M365.223,68.43l2.724-40.508l-10.009,0.984l1.395-20.735l10.008-0.984l1.47-21.848L394.582-17l-1.47,21.85
		l19.703-1.936l-1.394,20.733l-19.704,1.938l-2.456,36.522c-0.376,5.581,1.79,8.064,7.104,7.543
		c4.38-0.434,8.364-1.934,11.933-4.186l-1.308,19.456c-5.208,3.523-11.122,6.006-19.098,6.792
		C373.348,93.142,363.892,88.208,365.223,68.43"/>
	<path fill="#040000" d="M81.413,96.298c-4.349,0.869-6.224,0.173-6.522-0.12c-0.75-0.729-2.372-4.771-0.888-14.592
		c2.422-16.093-2.229-30.616-12.763-39.854c-10.067-8.826-24.13-11.459-38.609-7.208l6.55,25.61
		c5.797-1.689,10.865-0.984,14.275,2.008c1.417,1.242,2.524,2.844,3.308,4.719l0.183,0.929l-0.202,1.196
		c-4.344-1.271-9.12-1.494-14.096-0.542c-16.472,3.122-29.2,17.953-28.978,33.769c0.114,8.148,3.83,15.438,10.193,19.999
		c5.946,4.265,13.566,5.841,21.507,4.454c0.164-0.026,0.327-0.058,0.493-0.091c8.04-1.521,15.167-5.855,20.352-11.709l0.212,1.083
		c4.827,4.568,13.551,9.275,28.237,6.717c0.226-0.04,0.452-0.082,0.683-0.125L81.413,96.298z M43.43,94.907
		c0.079,5.582-4.491,11.172-9.978,12.214c-2.037,0.356-4.033,0.043-5.538-1.037c-1.787-1.279-2.791-3.403-2.829-5.976
		c-0.077-5.576,4.491-11.172,9.979-12.208c0.046-0.009,0.094-0.022,0.14-0.03c2.063-0.359,3.925,0.008,5.397,1.063
		C42.388,90.216,43.393,92.335,43.43,94.907"/>
	<path fill="#040000" d="M311.694,73.293c-4.351,0.87-6.225,0.174-6.524-0.118c-0.751-0.729-2.37-4.771-0.887-14.594
		c2.422-16.091-2.229-30.616-12.763-39.854c-10.067-8.826-24.129-11.459-38.609-7.209l6.55,25.612
		c5.798-1.69,10.865-0.985,14.275,2.007c1.417,1.243,2.524,2.844,3.308,4.721l0.183,0.928l-0.201,1.196
		c-4.345-1.272-9.121-1.494-14.096-0.544c-16.472,3.123-29.199,17.954-28.978,33.768c0.116,8.151,3.833,15.438,10.193,20.001
		c5.948,4.263,13.567,5.84,21.508,4.455c0.164-0.026,0.329-0.06,0.494-0.091c8.039-1.521,15.165-5.856,20.351-11.712l0.213,1.084
		c4.827,4.569,13.551,9.276,28.235,6.719c0.228-0.043,0.453-0.083,0.683-0.125L311.694,73.293z M273.71,71.902
		c0.079,5.582-4.492,11.172-9.978,12.216c-2.037,0.354-4.033,0.041-5.538-1.037c-1.788-1.281-2.792-3.404-2.829-5.976
		c-0.079-5.578,4.49-11.173,9.978-12.213c0.046-0.009,0.095-0.018,0.141-0.026c2.062-0.359,3.925,0.009,5.397,1.064
		C272.667,67.213,273.673,69.331,273.71,71.902"/>
	<path fill="#040000" d="M-89.194,146.922c-0.844,0.117-1.695,0.17-2.549,0.151c-7.42-0.151-13.199-5.454-14.38-13.198l-0.105-0.92
		l-7.702-98.088l24.11-5.483l5.516,70.254l18.921-45.474c3.362-7.601,10.047-12.483,17.179-12.768
		c7.14-0.281,12.991,4.127,14.907,11.227l0.352,1.302l1.943,43.014L30.853-9.692L51,1.525l-73.777,127.18
		c-3.534,6.348-10.224,10.531-16.889,10.409c-6.707-0.115-12.207-4.529-14.018-11.241l-0.351-1.301l-1.604-35.505l-17.989,43.228
		C-76.729,141.298-82.738,146.028-89.194,146.922"/>
</g>
</svg>
