<?xml version="1.0" encoding="utf-8"?>
<!-- Generator: Adobe Illustrator 16.0.0, SVG Export Plug-In . SVG Version: 6.00 Build 0)  -->
<!DOCTYPE svg PUBLIC "-//W3C//DTD SVG 1.1//EN" "http://www.w3.org/Graphics/SVG/1.1/DTD/svg11.dtd">
<svg version="1.1" id="_x32_" xmlns="http://www.w3.org/2000/svg" xmlns:xlink="http://www.w3.org/1999/xlink" x="0px" y="0px"
	 width="690.404px" height="538.873px" viewBox="4.798 80.563 690.404 538.873"
	 enable-background="new 4.798 80.563 690.404 538.873" xml:space="preserve">
<g>
	<path fill="#333333" d="M689.047,156.165c-2.829-14.314-9.218-27.841-18.534-39.213c-1.891-2.388-3.87-4.512-6.034-6.667
		c-16.577-16.663-39.631-26.221-63.26-26.221H98.779c-23.892,0-46.362,9.317-63.271,26.23c-2.14,2.134-4.124,4.28-6.089,6.744
		c-9.276,11.325-15.635,24.833-18.398,39.167c-1.155,5.628-1.738,11.46-1.738,17.361v352.877c0,12.277,2.493,24.232,7.438,35.596
		c4.278,10.093,10.771,19.661,18.781,27.669c2.018,2.007,4.022,3.86,6.163,5.667c16.016,13.263,36.297,20.563,57.114,20.563h502.439
		c20.95,0,41.21-7.326,57.186-20.71c2.135-1.729,4.114-3.541,6.092-5.52c7.742-7.736,13.898-16.623,18.322-26.426l0.582-1.397
		c4.854-11.147,7.317-23.064,7.317-35.439V173.565C690.718,167.742,690.157,161.871,689.047,156.165z M55.629,141.182
		c1.266-1.853,2.882-3.754,4.943-5.832c10.233-10.229,23.805-15.857,38.206-15.857h502.438c14.525,0,28.102,5.638,38.223,15.877
		c1.747,1.766,3.417,3.727,4.872,5.686l3.844,5.164L379.973,379.952c-8.268,7.249-18.912,11.238-29.978,11.238
		c-10.954,0-21.59-3.98-29.956-11.229L52.125,146.286L55.629,141.182z M44.891,529.559c-0.145-0.961-0.178-2.027-0.178-3.116
		V180.871L252.83,362.427L46.813,542.049L44.891,529.559z M628.028,573.383c-8.054,4.648-17.33,7.113-26.81,7.113H98.779
		c-9.485,0-18.758-2.465-26.808-7.113l-8.422-4.884l212.862-185.502l23.329,20.29c13.993,12.149,31.838,18.849,50.257,18.849
		c18.487,0,36.36-6.699,50.345-18.849l23.319-20.299l212.79,185.522L628.028,573.383z M655.278,526.442
		c0,1.068-0.021,2.126-0.154,3.067l-1.845,12.605L447.174,362.522l208.104-181.563V526.442z"/>
</g>
</svg>
